HIERARCHY
ROOT Hips
{
    OFFSET 0.000000 0.000000 0.000000
    CHANNELS 6 Xposition Yposition Zposition Zrotation Xrotation Yrotation
        JOINT Chest
        {
            OFFSET -0.000000 28.502190 -0.000000
            CHANNELS 3 Zrotation Xrotation Yrotation
            JOINT Neck
            {
                OFFSET -0.000000 21.060717 0.000000
                CHANNELS 3 Zrotation Xrotation Yrotation
                JOINT Head
                {
                    OFFSET -0.000000 9.900002 0.000000
                    CHANNELS 3 Zrotation Xrotation Yrotation
                    End Site
                    {
                        OFFSET -0.000000 15.300010 0.000000
                    }
                }
            }
            JOINT LeftCollar
            {
                OFFSET -0.000000 21.060717 0.000000
                CHANNELS 3 Zrotation Xrotation Yrotation
                JOINT LeftShoulder
                {
                    OFFSET 18.000004 -0.000000 0.000000
                    CHANNELS 3 Zrotation Xrotation Yrotation
                    JOINT LeftElbow
                    {
                        OFFSET 21.585543 0.000000 0.000000
                        CHANNELS 3 Zrotation Xrotation Yrotation
                        JOINT LeftWrist
                        {
                            OFFSET 21.310946 0.000000 0.000000
                            CHANNELS 3 Zrotation Xrotation Yrotation
                            End Site
                            {
                                OFFSET 0.000000 -13.500002 0.000000
                            }
                        }
                    }
                }
            }
            JOINT RightCollar
            {
                OFFSET -0.000000 21.060717 0.000000
                CHANNELS 3 Zrotation Xrotation Yrotation
                JOINT RightShoulder
                {
                    OFFSET -18.000004 0.000000 0.000000
                    CHANNELS 3 Zrotation Xrotation Yrotation
                    JOINT RightElbow
                    {
                        OFFSET -21.585543 0.000000 0.000000
                        CHANNELS 3 Zrotation Xrotation Yrotation
                        JOINT RightWrist
                        {
                            OFFSET -21.310946 0.000000 0.000000
                            CHANNELS 3 Zrotation Xrotation Yrotation
                            End Site
                            {
                                OFFSET -0.000000 -13.500002 0.000000
                            }
                        }
                    }
                }
            }
        }
    JOINT LeftHip
    {
        OFFSET 10.800001 0.000000 0.000000
        CHANNELS 3 Zrotation Xrotation Yrotation
        JOINT LeftKnee
        {
            OFFSET -0.000000 -36.918850 0.000000
            CHANNELS 3 Zrotation Xrotation Yrotation
            JOINT LeftAnkle
            {
                OFFSET -0.000000 -34.060452 0.000000
                CHANNELS 3 Zrotation Xrotation Yrotation
                End Site
                {
                    OFFSET -0.000000 -4.500001 15.300010
                }
            }
        }
    }
    JOINT RightHip
    {
        OFFSET -10.800001 0.000000 0.000000
        CHANNELS 3 Zrotation Xrotation Yrotation
        JOINT RightKnee
        {
            OFFSET -0.000000 -36.918850 0.000000
            CHANNELS 3 Zrotation Xrotation Yrotation
            JOINT RightAnkle
            {
                OFFSET -0.000000 -34.060452 0.000000
                CHANNELS 3 Zrotation Xrotation Yrotation
                End Site
                {
                    OFFSET -0.000000 -4.500001 15.300010
                }
            }
        }
    }
}
MOTION
Frames:    8
Frame Time:    0.010000
82.805046    79.777565    -114.910217    5.391210    2.272101    -44.025612    -3.889949    15.417918    15.757679    6.112145    -1.160823    -1.773951    -7.985103    -3.516208    -2.085109    -18.845751    -1.085977    6.468826    -44.151604    41.730476    -16.199184    3.774574    -0.624711    -19.817547    93.932419    -6.928771    -3.703812    13.982666    -0.759877    -5.964616    -3.492970    58.500103    78.176315    -15.314764    -1.893734    13.693342    -116.138657    18.843544    -21.706884    -6.168050    -17.844969    -4.275196    3.031621    6.054221    15.661014    1.456845    7.115773    6.661675    -0.679271    -5.226758    -10.940018    -4.139482    13.030594    -5.613011    0.723635    -13.447083    2.002137    
82.774353    79.772911    -114.952042    5.298275    2.443116    -43.640713    -3.478410    15.578077    15.742412    6.160724    -0.288653    -2.001523    -8.059382    -4.503501    -2.335642    -18.621456    -1.088266    6.694376    -44.374996    42.146217    -15.958028    3.572960    -0.594620    -19.545107    92.808296    -6.893493    -4.525215    13.915043    -0.718419    -5.872754    -2.169544    58.363041    76.692177    -14.759295    -1.740703    13.189740    -116.751434    18.241810    -20.694286    -6.069717    -17.702311    -4.040363    3.140634    5.557017    15.388303    1.335690    7.437084    6.386558    -0.455155    -5.141971    -11.224810    -4.149845    12.831325    -5.643237    0.477653    -13.395005    1.902722    
82.748726    79.766228    -114.995491    5.229283    2.621457    -43.250263    -3.059934    15.706046    15.676851    6.207715    0.683358    -2.162715    -8.222937    -5.618213    -2.532426    -18.389301    -1.104967    6.989669    -44.513107    42.680592    -15.833288    3.416956    -0.560498    -19.364634    91.769272    -6.856166    -5.084748    13.848879    -0.683550    -5.773935    -1.037155    58.244328    75.345848    -14.377919    -1.617887    12.710021    -117.209427    17.587887    -19.796579    -5.998784    -17.644651    -3.810552    3.252727    5.169728    15.086115    1.234700    7.709194    6.134765    -0.243697    -5.078251    -11.517855    -4.160499    12.615578    -5.725185    0.237106    -13.337724    1.849128    
82.728065    79.758499    -115.041901    5.186099    2.802133    -42.849895    -2.645280    15.813714    15.564697    6.267859    1.629456    -2.266662    -8.488170    -6.728128    -2.679025    -18.166420    -1.121563    7.326684    -44.558922    43.262844    -15.801153    3.226810    -0.530175    -19.259178    90.874428    -6.853617    -5.451964    13.790435    -0.697574    -5.674306    -0.138399    58.184597    74.180435    -14.113686    -1.539134    12.262794    -117.526596    16.884571    -19.003998    -5.955599    -17.676159    -3.598376    3.356974    4.903070    14.753469    1.174436    7.933447    5.908451    -0.048285    -5.035118    -11.801642    -4.170412    12.389303    -5.862957    0.015812    -13.266176    1.848172    
82.711945    79.750885    -115.091965    5.167091    2.978235    -42.435867    -2.243374    15.918108    15.414635    6.352237    2.398803    -2.327056    -8.848147    -7.667437    -2.788788    -17.964678    -1.161184    7.673840    -44.527466    43.857784    -15.827238    3.054691    -0.499703    -19.241831    90.085243    -6.904832    -5.625097    13.755786    -0.659730    -5.580429    0.537905    58.082901    73.170609    -13.685212    -1.427116    11.927170    -117.823746    16.146225    -18.314150    -5.938212    -17.792480    -3.420221    3.441117    4.760936    14.392707    1.170691    8.112614    5.714027    0.128449    -5.008519    -12.062396    -4.179229    12.159764    -6.052362    -0.165938    -13.173393    1.897860    
82.699638    79.744537    -115.145851    5.167075    3.141848    -42.006462    -1.860091    16.038361    15.238470    6.465284    2.874524    -2.363013    -9.278345    -8.303009    -2.874566    -17.799540    -1.201605    8.000192    -44.418846    44.389160    -15.891199    2.839824    -0.460885    -19.297289    89.428291    -7.023791    -5.679557    13.736637    -0.677748    -5.499223    0.936345    58.034222    72.419342    -13.505808    -1.361260    11.558393    -117.856987    15.335819    -17.801592    -5.942119    -17.981678    -3.293063    3.493647    4.741234    14.009558    1.228701    8.249560    5.561999    0.285840    -4.991543    -12.288387    -4.187722    11.934932    -6.285326    -0.286081    -13.055796    1.984293    
82.690392    79.740364    -115.203156    5.178257    3.284932    -41.562626    -1.497868    16.193363    15.050307    6.595685    2.984976    -2.390663    -9.731870    -8.541380    -2.946746    -17.678808    -1.244287    8.283614    -44.244789    44.826477    -15.981085    2.624421    -0.421499    -19.432472    88.880630    -7.204395    -5.632236    13.741928    -0.643834    -5.433728    1.150062    57.929127    71.811935    -13.131248    -1.285592    11.289758    -117.929863    14.507167    -17.347441    -5.961586    -18.225708    -3.231985    3.506242    4.834883    13.614888    1.344038    8.349024    5.462175    0.424704    -4.976412    -12.469141    -4.197063    11.723847    -6.554985    -0.328401    -12.914371    2.084889    
82.683441    79.738922    -115.263275    5.190938    3.401067    -41.108696    -1.155522    16.399637    14.864290    6.713279    2.695965    -2.428715    -10.137613    -8.319521    -3.010249    -17.605211    -1.286333    8.510296    -44.019001    45.150566    -16.085587    2.410823    -0.397120    -19.643652    88.447792    -7.436088    -5.523538    13.755876    -0.679572    -5.386155    1.159498    57.876778    71.417946    -13.024224    -1.229612    10.978185    -117.790024    13.657888    -17.058208    -5.989113    -18.502666    -3.245001    3.475336    5.025998    13.220037    1.503779    8.417134    5.420711    0.548364    -4.956279    -12.594403    -4.208560    11.536142    -6.857547    -0.288602    -12.754448    2.172385    
